<?xml version="1.0" encoding="UTF-8"?>
<svg version="1.1" xmlns="http://www.w3.org/2000/svg" width="61" height="61">
<path d="M0 0 C20.13 0 40.26 0 61 0 C61 20.13 61 40.26 61 61 C40.87 61 20.74 61 0 61 C0 40.87 0 20.74 0 0 Z " fill="#F7F7F8" transform="translate(0,0)"/>
<path d="M0 0 C3.29696105 1.09898702 4.04670589 1.94597387 6.1875 4.5625 C6.71730469 5.20316406 7.24710938 5.84382812 7.79296875 6.50390625 C8.19128906 6.99761719 8.58960937 7.49132812 9 8 C9 7.34 9 6.68 9 6 C9.66 6 10.32 6 11 6 C11.33 5.34 11.66 4.68 12 4 C12.28875 4.639375 12.5775 5.27875 12.875 5.9375 C13.82823451 8.15206079 13.82823451 8.15206079 16 9 C16 9.66 16 10.32 16 11 C16.78375 11.061875 17.5675 11.12375 18.375 11.1875 C19.24125 11.455625 20.1075 11.72375 21 12 C22.1875 14.5 22.1875 14.5 23 17 C23.66 17.33 24.32 17.66 25 18 C25.33 17.34 25.66 16.68 26 16 C27.32 17.32 28.64 18.64 30 20 C29.67 20.66 29.34 21.32 29 22 C26.9375 22.625 26.9375 22.625 25 23 C25 23.61488281 25 24.22976562 25 24.86328125 C25 28.2421875 25 31.62109375 25 35 C24.01 35 23.02 35 22 35 C20.39092892 37.37612865 20.39092892 37.37612865 19 40 C18.34 40.66 17.68 41.32 17 42 C16.690625 42.680625 16.38125 43.36125 16.0625 44.0625 C15 46 15 46 12 47 C11.34 46.34 10.68 45.68 10 45 C6.93778114 44.83270643 6.93778114 44.83270643 3.5 45 C-0.03125 45.125 -0.03125 45.125 -3 45 C-3.66 44.34 -4.32 43.68 -5 43 C-2.69 43 -0.38 43 2 43 C2.70074844 39.846632 3 37.27275026 3 34 C1.25008666 33.97284617 -0.49994945 33.95353449 -2.25 33.9375 C-3.22453125 33.92589844 -4.1990625 33.91429687 -5.203125 33.90234375 C-7.68137426 33.9888748 -9.67616995 34.15254822 -12 35 C-12.33 35.66 -12.66 36.32 -13 37 C-12.34 37 -11.68 37 -11 37 C-11 37.66 -11 38.32 -11 39 C-11.99 39 -12.98 39 -14 39 C-13.67 39.99 -13.34 40.98 -13 42 C-16.40562852 42.77842938 -19.50765756 43.09978121 -23 43 C-23.25 37.375 -23.25 37.375 -21 34 C-17.375 32.8125 -17.375 32.8125 -14 32 C-14 31.01 -14 30.02 -14 29 C-15.32 29.33 -16.64 29.66 -18 30 C-18.55353075 19.44191344 -18.55353075 19.44191344 -15 15 C-14.38125 14.13375 -13.7625 13.2675 -13.125 12.375 C-9.85072351 8.71551451 -6.69155229 7.13244366 -2 6 C-1.34 5.34 -0.68 4.68 0 4 C0 2.68 0 1.36 0 0 Z " fill="#E9E8EE" transform="translate(27,4)"/>
<path d="M0 0 C0.99 0.33 1.98 0.66 3 1 C4.1875 3.5625 4.1875 3.5625 5 6 C5.33 4.35 5.66 2.7 6 1 C7.45736087 0.80508548 8.91594593 0.61930642 10.375 0.4375 C11.18710937 0.33308594 11.99921875 0.22867187 12.8359375 0.12109375 C15 0 15 0 17 1 C17.75 4.4375 17.75 4.4375 18 8 C16 10 16 10 12.375 10.125 C11.26125 10.08375 10.1475 10.0425 9 10 C9 10.66 9 11.32 9 12 C9.680625 11.855625 10.36125 11.71125 11.0625 11.5625 C14.36273082 10.93054091 17.67144426 10.45686059 21 10 C17.97667338 13.372172 15.20466615 15.30139365 11 17 C7.203125 17.109375 7.203125 17.109375 3.25 16.75 C1.27773438 16.58757813 1.27773438 16.58757813 -0.734375 16.421875 C-4 16 -4 16 -6 15 C-5.67 13.68 -5.34 12.36 -5 11 C-0.545 10.505 -0.545 10.505 4 10 C3.34 9.01 2.68 8.02 2 7 C2 6.01 2 5.02 2 4 C1.34 4 0.68 4 0 4 C-0.33 5.65 -0.66 7.3 -1 9 C-1.99 9.33 -2.98 9.66 -4 10 C-3.52449439 8.51965236 -3.04448784 7.04074979 -2.5625 5.5625 C-2.29566406 4.73878906 -2.02882813 3.91507813 -1.75390625 3.06640625 C-1 1 -1 1 0 0 Z " fill="#D44A4F" transform="translate(23,21)"/>
<path d="M0 0 C-1.29096781 0.81360995 -2.58279875 1.62585046 -3.875 2.4375 C-4.59429687 2.88996094 -5.31359375 3.34242187 -6.0546875 3.80859375 C-10.0214654 6.23804608 -12.97578708 5.96325891 -17.5 5.625 C-18.53447266 5.55925781 -18.53447266 5.55925781 -19.58984375 5.4921875 C-24.73820153 5.13089923 -24.73820153 5.13089923 -27 4 C-26.67 2.68 -26.34 1.36 -26 0 C-14.9048474 -0.16157989 -14.9048474 -0.16157989 -10.5 0.625 C-6.27390791 1.25891381 -4.40862028 -1.31709817 0 0 Z " fill="#252E74" transform="translate(44,32)"/>
<path d="M0 0 C1.5 1.375 1.5 1.375 3 3 C3 3.66 3 4.32 3 5 C3.66 5 4.32 5 5 5 C5 5.66 5 6.32 5 7 C4.01 7 3.02 7 2 7 C2.33 7.99 2.66 8.98 3 10 C-0.40562852 10.77842938 -3.50765756 11.09978121 -7 11 C-7.25 5.375 -7.25 5.375 -5 2 C-2.375 0.8125 -2.375 0.8125 0 0 Z " fill="#E2E2E8" transform="translate(11,36)"/>
<path d="M0 0 C4.1424367 1.38081223 5.32203099 3.59825558 8 7 C3.8803623 8.29243536 0.33168317 9.26252625 -4 9 C-3.34 8.2575 -2.68 7.515 -2 6.75 C0.39211447 4.02757055 0.39211447 4.02757055 0 0 Z " fill="#A9ADC8" transform="translate(27,4)"/>
<path d="M0 0 C1.9375 0.75 1.9375 0.75 4 2 C4.75 4.125 4.75 4.125 5 6 C4.2575 6.144375 3.515 6.28875 2.75 6.4375 C0.47972261 6.90187492 -1.75759479 7.41863569 -4 8 C-3.979375 7.21625 -3.95875 6.4325 -3.9375 5.625 C-3.81315937 3.01885039 -3.81315937 3.01885039 -5 1 C-2.525 1.495 -2.525 1.495 0 2 C0 1.34 0 0.68 0 0 Z " fill="#CACDDD" transform="translate(52,20)"/>
<path d="M0 0 C0.66 0.33 1.32 0.66 2 1 C1.1875 3.4375 1.1875 3.4375 0 6 C-0.99 6.33 -1.98 6.66 -3 7 C-3.66 6.34 -4.32 5.68 -5 5 C-8.06221886 4.83270643 -8.06221886 4.83270643 -11.5 5 C-15.03125 5.125 -15.03125 5.125 -18 5 C-18.66 4.34 -19.32 3.68 -20 3 C-19.05898438 3.03480469 -18.11796875 3.06960937 -17.1484375 3.10546875 C-15.90320313 3.13253906 -14.65796875 3.15960938 -13.375 3.1875 C-11.53035156 3.23970703 -11.53035156 3.23970703 -9.6484375 3.29296875 C-5.72838958 2.97818974 -3.42650408 1.83383283 0 0 Z " fill="#787CA1" transform="translate(42,44)"/>
<path d="M0 0 C3 1 3 1 4.1875 3.375 C5 6 5 6 5 9 C4.34 9 3.68 9 3 9 C2.67 7.35 2.34 5.7 2 4 C1.34 4 0.68 4 0 4 C-0.33 5.65 -0.66 7.3 -1 9 C-1.99 9.33 -2.98 9.66 -4 10 C-3.52449439 8.51965236 -3.04448784 7.04074979 -2.5625 5.5625 C-2.29566406 4.73878906 -2.02882813 3.91507813 -1.75390625 3.06640625 C-1 1 -1 1 0 0 Z " fill="#D13237" transform="translate(23,21)"/>
<path d="M0 0 C-5.01372252 3.52913975 -8.83543922 5.61471495 -15 6 C-14.67 5.34 -14.34 4.68 -14 4 C-12.7934375 3.7834375 -12.7934375 3.7834375 -11.5625 3.5625 C-8.65559342 3.23497283 -8.65559342 3.23497283 -7 0 C-3.86650268 -1.04449911 -3.01031744 -0.93423645 0 0 Z " fill="#0E1462" transform="translate(44,32)"/>
<path d="M0 0 C2.0625 0.4375 2.0625 0.4375 4 1 C4 1.66 4 2.32 4 3 C5.65 3.33 7.3 3.66 9 4 C9.33 5.32 9.66 6.64 10 8 C9.01 8.33 8.02 8.66 7 9 C6.67 7.68 6.34 6.36 6 5 C5.401875 4.896875 4.80375 4.79375 4.1875 4.6875 C1.71756736 3.91123545 0.67748765 2.92911079 -1 1 C-0.67 0.67 -0.34 0.34 0 0 Z " fill="#7E84AF" transform="translate(39,12)"/>
<path d="M0 0 C1.98 0 3.96 0 6 0 C6 0.99 6 1.98 6 3 C3 5 3 5 0.8125 4.625 C0.214375 4.41875 -0.38375 4.2125 -1 4 C-0.67 2.68 -0.34 1.36 0 0 Z " fill="#F8F8F9" transform="translate(36,42)"/>
<path d="M0 0 C1.32 0 2.64 0 4 0 C4 1.98 4 3.96 4 6 C2.68 6 1.36 6 0 6 C0 4.02 0 2.04 0 0 Z " fill="#EAA1A3" transform="translate(34,23)"/>
<path d="M0 0 C0.66 0.33 1.32 0.66 2 1 C0.515 4.465 0.515 4.465 -1 8 C-1.66 7.67 -2.32 7.34 -3 7 C-2.25 2.25 -2.25 2.25 0 0 Z " fill="#6F76A5" transform="translate(12,20)"/>
</svg>
